<?xml version="1.0" encoding="UTF-8" standalone="no"?><!DOCTYPE svg PUBLIC "-//W3C//DTD SVG 1.1//EN" "http://www.w3.org/Graphics/SVG/1.1/DTD/svg11.dtd"><svg width="100%" height="100%" viewBox="0 0 1339 2203" version="1.1" xmlns="http://www.w3.org/2000/svg" xmlns:xlink="http://www.w3.org/1999/xlink" xml:space="preserve" xmlns:serif="http://www.serif.com/" style="fill-rule:evenodd;clip-rule:evenodd;stroke-linejoin:round;stroke-miterlimit:2;"><path d="M19.759,337.694l-0,-181.504c-0,-86.203 69.986,-156.19 156.19,-156.19l989.205,-0c86.203,-0 156.19,69.987 156.19,156.19l-0,423.937l9.091,0c4.274,0 7.745,3.47 7.745,7.745l-0,284.56c-0,4.274 -3.471,7.744 -7.745,7.744l-9.091,0l-0,1166.48c-0,86.204 -69.987,156.19 -156.19,156.19l-989.205,0c-86.204,0 -156.19,-69.986 -156.19,-156.19l-0,-1112.6l-9.092,0c-4.274,0 -7.744,-3.47 -7.744,-7.744l-0,-162.595c-0,-4.275 3.47,-7.745 7.744,-7.745l9.092,0l-0,-53.874l-9.092,0c-4.274,0 -7.744,-3.47 -7.744,-7.744l-0,-162.595c-0,-4.275 3.47,-7.745 7.744,-7.745l9.092,0l-0,-93.531l-12.015,-0c-4.274,-0 -7.744,-3.47 -7.744,-7.745l-0,-77.294c-0,-4.274 3.47,-7.744 7.744,-7.744l12.015,-0Zm1228.77,-181.086c-0,-44.772 -36.349,-81.121 -81.121,-81.121l-996.626,0c-44.772,0 -81.121,36.349 -81.121,81.121l-0,1893.7c-0,44.771 36.349,81.12 81.121,81.12l996.626,0c44.772,0 81.121,-36.349 81.121,-81.12l-0,-1893.7Z"/></svg>