<?xml version="1.0" encoding="UTF-8" standalone="no"?><!DOCTYPE svg PUBLIC "-//W3C//DTD SVG 1.1//EN" "http://www.w3.org/Graphics/SVG/1.1/DTD/svg11.dtd"><svg width="100%" height="100%" viewBox="0 0 2227 1607" version="1.1" xmlns="http://www.w3.org/2000/svg" xmlns:xlink="http://www.w3.org/1999/xlink" xml:space="preserve" xmlns:serif="http://www.serif.com/" style="fill-rule:evenodd;clip-rule:evenodd;stroke-linejoin:round;stroke-miterlimit:2;"><g id="Layer1"><path d="M1364.76,1330.88l-0,221.019l99.816,0c15.025,0 27.223,12.198 27.223,27.223c-0,15.024 -12.198,27.222 -27.223,27.222l-702.949,0c-15.025,0 -27.223,-12.198 -27.223,-27.222c0,-15.025 12.198,-27.223 27.223,-27.223l99.816,0l0,-221.019l-794.901,-0c-36.727,-0 -66.544,-29.818 -66.544,-66.545l0,-1197.8c0,-36.727 29.817,-66.544 66.544,-66.544l2093.12,0c36.727,0 66.544,29.817 66.544,66.544l0,1197.8c0,36.727 -29.817,66.545 -66.544,66.545l-794.901,-0Zm756.488,-1237.12l-2023.55,-0l-0,1143.35l2023.55,-0l0,-1143.35Z"/></g></svg>